<svg xmlns="http://www.w3.org/2000/svg" width="200.324" height="200.317" viewBox="0 0 200.324 200.317">
  <g id="Grupo_3383" data-name="Grupo 3383" transform="translate(-542.96 16.108)" opacity="0.798">
    <path id="Caminho_4642" data-name="Caminho 4642" d="M364.61,293.939l11.1-26.506c.5-1.187-4.646-6.685-3.844-8.356s17.448.969,16.562,4.345c-.518,2.022-5.582,3.71-5.916,4.646-.6,1.671-5.014,29.23-5.014,29.23Z" transform="translate(284.557 -260.034)" fill="#5561ef"/>
    <path id="Caminho_4643" data-name="Caminho 4643" d="M369.9,259s8.206,3.827,13.838,3.175" transform="translate(288.108 -259.739)" fill="#5561ef"/>
    <path id="Caminho_4644" data-name="Caminho 4644" d="M364.61,293.939l11.1-26.506c.5-1.187-4.646-6.685-3.844-8.356s17.448.969,16.562,4.345c-.518,2.022-5.582,3.71-5.916,4.646-.6,1.671-5.014,29.23-5.014,29.23Z" transform="translate(284.557 -260.034)" fill="#5561ef" opacity="0.1"/>
    <path id="Caminho_4645" data-name="Caminho 4645" d="M349.668,301.328l-10.9-26.572c-.485-1.187-8.022-1.437-8.624-3.192s13.019-11.7,14.79-8.64c1.07,1.8-1.32,6.585-.9,7.487.735,1.571,17.113,24.216,17.113,24.216Z" transform="translate(261.412 -257.496)" fill="#5561ef"/>
    <path id="Caminho_4646" data-name="Caminho 4646" d="M330.88,270.287s8.507-3.108,12.033-7.537" transform="translate(261.916 -257.222)" fill="#5561ef"/>
    <path id="Caminho_4647" data-name="Caminho 4647" d="M349.668,301.328l-10.9-26.572c-.485-1.187-8.022-1.437-8.624-3.192s13.019-11.7,14.79-8.64c1.07,1.8-1.32,6.585-.9,7.487.735,1.571,17.113,24.216,17.113,24.216Z" transform="translate(261.412 -257.496)" fill="#5561ef" opacity="0.1"/>
    <path id="Caminho_4648" data-name="Caminho 4648" d="M344.1,315.585l-26.489-11.1c-1.187-.5-6.685,4.646-8.356,3.827s.986-17.431,4.345-16.562c2.039.535,3.71,5.6,4.663,5.933,1.671.585,29.213,5.014,29.213,5.014Z" transform="translate(247.057 -237.777)" fill="#5561ef"/>
    <path id="Caminho_4649" data-name="Caminho 4649" d="M309.15,306.268s3.81-8.206,3.175-13.838" transform="translate(247.331 -237.3)" fill="#5561ef"/>
    <path id="Caminho_4650" data-name="Caminho 4650" d="M344.1,315.585l-26.489-11.1c-1.187-.5-6.685,4.646-8.356,3.827s.986-17.431,4.345-16.562c2.039.535,3.71,5.6,4.663,5.933,1.671.585,29.213,5.014,29.213,5.014Z" transform="translate(247.057 -237.777)" fill="#5561ef" opacity="0.1"/>
    <path id="Caminho_4651" data-name="Caminho 4651" d="M351.477,333.4l-26.489,10.9c-1.2.485-1.437,8.005-3.209,8.624s-11.7-13.036-8.624-14.79c1.8-1.07,6.568,1.32,7.487.9,1.554-.735,24.216-17.113,24.216-17.113Z" transform="translate(249.625 -217.506)" fill="#5561ef"/>
    <path id="Caminho_4652" data-name="Caminho 4652" d="M320.451,344.563s-3.092-8.507-7.521-12.033" transform="translate(249.868 -210.384)" fill="#5561ef"/>
    <path id="Caminho_4653" data-name="Caminho 4653" d="M351.477,333.4l-26.489,10.9c-1.2.485-1.437,8.005-3.209,8.624s-11.7-13.036-8.624-14.79c1.8-1.07,6.568,1.32,7.487.9,1.554-.735,24.216-17.113,24.216-17.113Z" transform="translate(249.625 -217.506)" fill="#5561ef" opacity="0.1"/>
    <path id="Caminho_4654" data-name="Caminho 4654" d="M365.748,342.066s-10.6,25.3-11.08,26.489,4.646,6.685,3.827,8.356-17.431-.986-16.562-4.345c.535-2.039,5.582-3.71,5.933-4.663.585-1.671,5.014-29.213,5.014-29.213Z" transform="translate(269.313 -206.249)" fill="#5561ef"/>
    <path id="Caminho_4655" data-name="Caminho 4655" d="M356.431,362.764s-8.189-3.81-13.821-3.175" transform="translate(269.79 -192.269)" fill="#5561ef"/>
    <path id="Caminho_4656" data-name="Caminho 4656" d="M365.748,342.066s-10.6,25.3-11.08,26.489,4.646,6.685,3.827,8.356-17.431-.986-16.562-4.345c.535-2.039,5.582-3.71,5.933-4.663.585-1.671,5.014-29.213,5.014-29.213Z" transform="translate(269.313 -206.249)" fill="#5561ef" opacity="0.1"/>
    <path id="Caminho_4657" data-name="Caminho 4657" d="M383.611,334.76s10.4,25.386,10.9,26.573,8.005,1.437,8.607,3.192-13.019,11.7-14.774,8.64c-1.07-1.8,1.32-6.568.886-7.487-.735-1.554-17.1-24.216-17.1-24.216Z" transform="translate(289.604 -208.887)" fill="#5561ef"/>
    <path id="Caminho_4658" data-name="Caminho 4658" d="M394.743,353.18s-8.507,3.092-12.033,7.52" transform="translate(296.706 -196.523)" fill="#5561ef"/>
    <path id="Caminho_4659" data-name="Caminho 4659" d="M383.611,334.76s10.4,25.386,10.9,26.573,8.005,1.437,8.607,3.192-13.019,11.7-14.774,8.64c-1.07-1.8,1.32-6.568.886-7.487-.735-1.554-17.1-24.216-17.1-24.216Z" transform="translate(289.604 -208.887)" fill="#5561ef" opacity="0.1"/>
    <path id="Caminho_4660" data-name="Caminho 4660" d="M392.229,314.43l26.506,11.1c1.187.5,6.685-4.646,8.356-3.827s-.969,17.431-4.345,16.562c-2.022-.535-3.71-5.582-4.646-5.933-1.671-.585-29.23-5.014-29.23-5.014Z" transform="translate(300.841 -222.533)" fill="#5561ef"/>
    <path id="Caminho_4661" data-name="Caminho 4661" d="M412.945,319.73s-3.827,8.189-3.175,13.821" transform="translate(314.819 -218.976)" fill="#5561ef"/>
    <path id="Caminho_4662" data-name="Caminho 4662" d="M392.229,314.43l26.506,11.1c1.187.5,6.685-4.646,8.356-3.827s-.969,17.431-4.345,16.562c-2.022-.535-3.71-5.582-4.646-5.933-1.671-.585-29.23-5.014-29.23-5.014Z" transform="translate(300.841 -222.533)" fill="#5561ef" opacity="0.1"/>
    <path id="Caminho_4663" data-name="Caminho 4663" d="M384.94,299.481l26.572-10.9c1.187-.485,1.437-8.005,3.192-8.607s11.7,13.019,8.64,14.774c-1.8,1.07-6.585-1.32-7.487-.886-1.571.719-24.216,17.1-24.216,17.1Z" transform="translate(298.203 -245.671)" fill="#5561ef"/>
    <path id="Caminho_4664" data-name="Caminho 4664" d="M403.35,280.7s3.108,8.507,7.537,12.033" transform="translate(310.56 -245.174)" fill="#5561ef"/>
    <path id="Caminho_4665" data-name="Caminho 4665" d="M384.94,299.481l26.572-10.9c1.187-.485,1.437-8.005,3.192-8.607s11.7,13.019,8.64,14.774c-1.8,1.07-6.585-1.32-7.487-.886-1.571.719-24.216,17.1-24.216,17.1Z" transform="translate(298.203 -245.671)" fill="#5561ef" opacity="0.1"/>
    <path id="Caminho_4666" data-name="Caminho 4666" d="M360.58,297.06s8.908-37.151,9.259-38.438-5.448-6.117-4.83-7.871,17.514-1.12,17.047,2.34c-.284,2.089-5.131,4.379-5.365,5.365-.384,1.671-2.875,40.377-2.875,40.377Z" transform="translate(281.852 -265.912)" fill="#5561ef"/>
    <path id="Caminho_4667" data-name="Caminho 4667" d="M364.19,250.38s8.64,2.824,14.172,1.5" transform="translate(284.275 -265.525)" fill="#5561ef"/>
    <path id="Caminho_4668" data-name="Caminho 4668" d="M350.193,306.4s-19.954-32.572-20.573-33.709-8.156-.468-8.974-2.139,11.582-13.186,13.7-10.4c1.287,1.671-.535,6.685,0,7.571.919,1.471,26.522,30.6,26.522,30.6Z" transform="translate(255.021 -259.256)" fill="#5561ef"/>
    <path id="Caminho_4669" data-name="Caminho 4669" d="M321.28,269.108s8.105-4.111,11.1-8.958" transform="translate(255.473 -258.967)" fill="#5561ef"/>
    <path id="Caminho_4670" data-name="Caminho 4670" d="M348.323,318.779s-37.151-8.908-38.438-9.259-6.1,5.448-7.871,4.83-1.12-17.514,2.34-17.047c2.089.284,4.379,5.131,5.365,5.365,1.671.384,40.377,2.874,40.377,2.874Z" transform="translate(241.9 -234.035)" fill="#5561ef"/>
    <path id="Caminho_4671" data-name="Caminho 4671" d="M357.656,336.7s-32.572,19.954-33.692,20.59-.468,8.172-2.156,8.974-13.169-11.582-10.4-13.7c1.671-1.287,6.685.535,7.587,0,1.471-.919,30.583-26.522,30.583-26.522Z" transform="translate(248.561 -214.74)" fill="#5561ef"/>
    <path id="Caminho_4672" data-name="Caminho 4672" d="M320.368,353.907s-4.111-8.105-8.958-11.1" transform="translate(248.847 -203.484)" fill="#5561ef"/>
    <path id="Caminho_4673" data-name="Caminho 4673" d="M370.056,342.1s-8.908,37.151-9.275,38.438,5.448,6.117,4.83,7.871-17.514,1.12-17.047-2.34c.284-2.089,5.131-4.379,5.365-5.365.384-1.671,2.891-40.377,2.891-40.377Z" transform="translate(273.78 -205.148)" fill="#5561ef"/>
    <path id="Caminho_4674" data-name="Caminho 4674" d="M363.509,369.835s-8.64-2.824-14.189-1.5" transform="translate(274.294 -186.589)" fill="#5561ef"/>
    <path id="Caminho_4675" data-name="Caminho 4675" d="M387.956,331.82s19.971,32.572,20.59,33.725,8.172.485,8.975,2.156-11.582,13.169-13.7,10.4c-1.27-1.671.535-6.685,0-7.571-.919-1.487-26.506-30.6-26.506-30.6Z" transform="translate(293.081 -210.861)" fill="#5561ef"/>
    <path id="Caminho_4676" data-name="Caminho 4676" d="M405.167,354s-8.105,4.111-11.1,8.958" transform="translate(304.331 -195.973)" fill="#5561ef"/>
    <path id="Caminho_4677" data-name="Caminho 4677" d="M393.361,309.31s37.151,8.908,38.438,9.275,6.117-5.448,7.871-4.83,1.12,17.514-2.34,17.046c-2.089-.284-4.379-5.131-5.365-5.365-1.671-.384-40.377-2.891-40.377-2.891Z" transform="translate(302.667 -225.97)" fill="#5561ef"/>
    <path id="Caminho_4678" data-name="Caminho 4678" d="M421.1,312.92s-2.824,8.64-1.5,14.189" transform="translate(321.226 -223.547)" fill="#5561ef"/>
    <path id="Caminho_4679" data-name="Caminho 4679" d="M383.08,298.939s32.572-19.971,33.709-20.59.468-8.172,2.139-8.974,13.186,11.582,10.4,13.7c-1.671,1.27-6.685-.535-7.571,0-1.471.919-30.6,26.506-30.6,26.506Z" transform="translate(296.954 -252.8)" fill="#5561ef"/>
    <path id="Caminho_4680" data-name="Caminho 4680" d="M405.22,270s4.111,8.105,8.958,11.1" transform="translate(311.815 -252.356)" fill="#5561ef"/>
    <path id="Caminho_4681" data-name="Caminho 4681" d="M450.928,351.167c-8.189,34.9-41.346,58.627-76.876,50.3-21.291-5.014-38.772-17.1-47.212-35.1-5.615-11.966-7.236-26.506-3.342-43.235,9.81-41.9,46.226-59.646,80.938-51.507a59.7,59.7,0,0,1,35.213,22.645C452.031,310.857,455.207,332.884,450.928,351.167Z" transform="translate(255.528 -252.552)" fill="#5561ef"/>
    <path id="Caminho_4682" data-name="Caminho 4682" d="M448.729,341.3c-8.189,34.9-41.346,58.627-76.876,50.3-21.291-5.014-38.773-17.1-47.212-35.1,17.431,12.9,48.967,29.865,80.553,14.891,38.639-18.383,43.318-57.925,32.288-86.987C449.832,300.989,453.007,323.015,448.729,341.3Z" transform="translate(257.728 -242.683)" fill="#5561ef" opacity="0.1"/>
    <path id="Caminho_4683" data-name="Caminho 4683" d="M367.526,296.635l-14.757,3.476a14.75,14.75,0,0,0-.134-1.671c-.5-6.167-2.173-27.174-2.29-28.411s-8.239-4.245-8.356-6.367c0-.953,3.677-2.741,7.8-4.078,5.014-1.671,10.663-2.507,11.164-.4s-3.627,6.685-3.459,7.855C357.833,268.96,367.526,296.635,367.526,296.635Z" transform="translate(269.374 -260.457)" fill="#5561ef"/>
    <path id="Caminho_4684" data-name="Caminho 4684" d="M343,262.615s10.295-.535,15.626-4.195Z" transform="translate(270.052 -260.129)" fill="#5561ef"/>
    <path id="Caminho_4685" data-name="Caminho 4685" d="M352.636,297.756c-.5-6.167-2.173-27.174-2.29-28.411s-8.239-4.245-8.356-6.367c0-.953,3.677-2.741,7.8-4.078a11.562,11.562,0,0,0-3.51,2.674,1.321,1.321,0,0,0-.217.518c-.184.585.083,1.07.735,1.538,1.671,1.2,5.381,2.306,5.866,3.844S352.7,296.87,352.636,297.756Z" transform="translate(269.374 -259.806)" fill="#5561ef" opacity="0.1"/>
    <path id="Caminho_4686" data-name="Caminho 4686" d="M353.987,299.714,346.016,312.6s-.184-.167-.535-.434a.468.468,0,0,0-.1-.1c-3.593-3.042-21.375-18.2-22.378-19.052s-8.824,2.841-10.378,1.387c-1.053-.986,2.574-9.459,6.067-13.955,1.588-2.056,3.125-3.342,4.195-2.624,2.022,1.237,2.189,7.32,3.092,7.988C327.532,287,353.987,299.714,353.987,299.714Z" transform="translate(249.538 -247.241)" fill="#5561ef"/>
    <path id="Caminho_4687" data-name="Caminho 4687" d="M313,292.285s6.9-7.654,8.089-14Z" transform="translate(249.915 -246.798)" fill="#5561ef"/>
    <path id="Caminho_4688" data-name="Caminho 4688" d="M345.38,310.93c-3.593-3.042-21.375-18.2-22.378-19.052s-8.824,2.841-10.378,1.387c-1.053-.986,2.574-9.459,6.067-13.955a26.956,26.956,0,0,0-2.457,7.22,5.532,5.532,0,0,0,0,1.537c0,.7.234,1.136.652,1.17,1.788.15,5.1-1.972,6.986-1.4S344.01,309.359,345.38,310.93Z" transform="translate(249.538 -246.107)" fill="#5561ef" opacity="0.1"/>
    <path id="Caminho_4689" data-name="Caminho 4689" d="M345.639,311.87l3.476,14.74h-.1l-30.082,2.407c-1.454.15-4.228,8.256-6.334,8.356s-7.4-15.359-5.2-18.467a1.237,1.237,0,0,1,.719-.518c2.306-.535,6.685,3.643,7.838,3.493C317.964,321.563,345.639,311.87,345.639,311.87Z" transform="translate(245.803 -224.252)" fill="#5561ef"/>
    <path id="Caminho_4690" data-name="Caminho 4690" d="M311.578,332.379s-.535-10.295-4.178-15.609Z" transform="translate(246.156 -220.963)" fill="#5561ef"/>
    <path id="Caminho_4691" data-name="Caminho 4691" d="M349.015,323.784l-30.082,2.407c-1.454.15-4.228,8.256-6.334,8.356s-7.4-15.359-5.2-18.467c-1.053,4.044,1.086,8.924,3.058,11.414a7.666,7.666,0,0,0,.969,1.053c.585.5,1.086.719,1.421.585,1.554-.752,3.342-4.8,5.7-5.2S347.377,323.751,349.015,323.784Z" transform="translate(245.803 -221.426)" fill="#5561ef" opacity="0.1"/>
    <path id="Caminho_4692" data-name="Caminho 4692" d="M341.972,362.757c-.7.8,1.12,5.114,1.588,8.005a3.008,3.008,0,0,1-.184,2.373c-1.454,1.521-18.684-6.9-16.6-10.261,1.237-2.039,7.32-2.173,8.022-3.092s5.933-11.7,9.743-19.487h0c2.306-4.713,4.095-8.356,4.095-8.356l12.885,7.955S342.908,361.621,341.972,362.757Z" transform="translate(259.047 -210.78)" fill="#5561ef"/>
    <path id="Caminho_4693" data-name="Caminho 4693" d="M341.255,359.419s-7.654-6.9-14-8.089Z" transform="translate(259.48 -197.765)" fill="#5561ef"/>
    <path id="Caminho_4694" data-name="Caminho 4694" d="M343.56,367.407a3.008,3.008,0,0,1-.184,2.373c-1.454,1.521-18.684-6.9-16.6-10.261,1.237-2.039,7.32-2.173,8.022-3.092s5.933-11.7,9.743-19.487c-2.206,7.721-6.685,20.456-7.537,21.141-1.2.953-4.88,1.822-4.83,3.693a2.223,2.223,0,0,0,.618,1.12A19.621,19.621,0,0,0,336.373,366a22.71,22.71,0,0,0,4.328,2.49,3,3,0,0,0,.618.251c.8.267,1.4.3,1.671,0A2.356,2.356,0,0,0,343.56,367.407Z" transform="translate(259.047 -207.424)" fill="#5561ef" opacity="0.1"/>
    <path id="Caminho_4695" data-name="Caminho 4695" d="M386.32,373.439c0,.5-1.053,1.253-2.674,2.039-5.014,2.49-15.609,5.365-16.328,2.44-.551-2.34,3.66-6.685,3.476-7.855s-5.014-15.175-7.821-23.4h0l-2.122-6.15,14.74-3.476s2.29,28.645,2.407,30.082S386.253,371.317,386.32,373.439Z" transform="translate(282.033 -207.357)" fill="#5561ef"/>
    <path id="Caminho_4696" data-name="Caminho 4696" d="M381.349,359.23s-10.295.535-15.609,4.178Z" transform="translate(285.315 -192.462)" fill="#5561ef"/>
    <path id="Caminho_4697" data-name="Caminho 4697" d="M382.793,371.572c-5.014,2.49-15.609,5.365-16.328,2.44-.551-2.34,3.66-6.685,3.476-7.855s-5.014-15.175-7.821-23.4c3.459,7.537,10.161,22.227,10.128,22.946s-2.841,5.816-1.487,6.936a1,1,0,0,0,.485.2,7.538,7.538,0,0,0,2.289.167A49.608,49.608,0,0,0,382.793,371.572Z" transform="translate(282.885 -203.517)" fill="#5561ef" opacity="0.1"/>
    <path id="Caminho_4698" data-name="Caminho 4698" d="M419.208,348.821c-2.39,4.462-5.548,8.64-7.3,7.554-2.039-1.254-2.189-7.32-3.092-7.988-1.37-1.036-20.79-10.445-26.455-13.153h0l-1.538-.719,7.972-12.885s21.876,18.651,23.013,19.587,8.824-2.841,10.378-1.4C422.9,340.481,421.364,344.76,419.208,348.821Z" transform="translate(295.437 -217.7)" fill="#5561ef"/>
    <path id="Caminho_4699" data-name="Caminho 4699" d="M408.389,333.5s-6.9,7.654-8.089,14Z" transform="translate(308.513 -209.733)" fill="#5561ef"/>
    <path id="Caminho_4700" data-name="Caminho 4700" d="M418.591,343.357c-2.39,4.462-5.549,8.64-7.3,7.554-2.039-1.253-2.189-7.32-3.092-7.988-1.37-1.036-20.79-10.445-26.455-13.153h0s28.411,9.844,28.879,11.13,1.237,6.685,2.941,6.484a2.741,2.741,0,0,0,1.019-.418A24.1,24.1,0,0,0,418.591,343.357Z" transform="translate(296.055 -212.237)" fill="#5561ef" opacity="0.1"/>
    <path id="Caminho_4701" data-name="Caminho 4701" d="M426.878,312.049c-1.22.284-3.042-.769-4.646-1.772s-2.674-1.788-3.209-1.671c-1.939.267-29.614,10.027-29.614,10.027L386,303.793l6.184-.5h.1c8.523-.669,22.829-1.8,23.832-1.905,1.471-.15,4.262-8.256,6.351-8.356S430.755,311.13,426.878,312.049Z" transform="translate(298.914 -236.898)" fill="#5561ef"/>
    <path id="Caminho_4702" data-name="Caminho 4702" d="M408.2,294.05s.535,10.295,4.195,15.609Z" transform="translate(313.816 -236.213)" fill="#5561ef"/>
    <path id="Caminho_4703" data-name="Caminho 4703" d="M424.381,312.042c-1.22.284-3.042-.769-4.646-1.772a30.854,30.854,0,0,0,3.66-.735,1,1,0,0,0,.568-.568,2.859,2.859,0,0,0,.184-1.019,16.578,16.578,0,0,0-1.872-6.969,8.157,8.157,0,0,0-1.2-1.905h0c-.368-.418-.719-.635-1.019-.551-1.872.485-4.245,5.231-7.053,5.465-1.989.15-15.676-.384-23.28-.685,8.523-.668,22.829-1.8,23.832-1.905,1.471-.15,4.262-8.256,6.351-8.356S428.259,311.123,424.381,312.042Z" transform="translate(301.411 -236.891)" fill="#5561ef" opacity="0.1"/>
    <path id="Caminho_4704" data-name="Caminho 4704" d="M405.382,273.9c-1.253,2.039-7.32,2.173-8.022,3.092-1.17,1.588-13.9,28.01-13.9,28.01l-12.885-7.972s.719-.852,1.905-2.206h0l17.7-20.79c.919-1.136-2.858-8.824-1.4-10.378.719-.785,5.615,1.036,9.927,3.459h0C402.825,269.37,406.384,272.261,405.382,273.9Z" transform="translate(288.557 -256.739)" fill="#5561ef"/>
    <path id="Caminho_4705" data-name="Caminho 4705" d="M382.47,264s7.654,6.9,14,8.089Z" transform="translate(296.545 -256.383)" fill="#5561ef"/>
    <path id="Caminho_4706" data-name="Caminho 4706" d="M397.968,267.1a15.642,15.642,0,0,0-4.613-.652,2.723,2.723,0,0,0-.936.1c-.836.217-1.337.685-1.287,1.5.15,2.256,2.406,5.883,1.671,7.37s-20.339,18.7-21.124,19.386l17.7-20.79c.919-1.136-2.858-8.824-1.4-10.378C388.76,262.859,393.657,264.68,397.968,267.1Z" transform="translate(289.302 -256.746)" fill="#5561ef" opacity="0.1"/>
    <g id="Grupo_3382" data-name="Grupo 3382" transform="translate(592.197 38.668)" opacity="0.1">
      <path id="Caminho_4027" data-name="Caminho 4027" d="M351.546,335.966c-.652,1.421-3.075,1.671-5.431.6s-3.71-3.109-3.058-4.512,3.075-1.671,5.415-.6S352.2,334.562,351.546,335.966Z" transform="translate(-322.218 -250.215)" fill="#5561ef"/>
      <path id="Caminho_4028" data-name="Caminho 4028" d="M352.394,342.052a15.961,15.961,0,0,1-9.275-4.412,5.014,5.014,0,0,1-1.487-5.448c.969-2.507,3.342-2.423,5.632-2.641a.117.117,0,0,0,0-.234c-3.944-.435-8.607,1.187-7.9,5.983.852,5.665,7.988,8.022,12.919,7.654A.459.459,0,0,0,352.394,342.052Z" transform="translate(-324.637 -251.254)" fill="#5561ef"/>
      <path id="Caminho_4029" data-name="Caminho 4029" d="M358.4,286.546c.2,1.538-2.407,3.159-5.849,3.627s-6.384-.418-6.6-1.955,2.423-3.159,5.849-3.627S358.2,285.008,358.4,286.546Z" transform="translate(-320.177 -281.315)" fill="#5561ef"/>
      <path id="Caminho_4030" data-name="Caminho 4030" d="M351.706,294.7a13.521,13.521,0,0,1-5.131-1.671,3.827,3.827,0,0,1-1.019-5.582c1.755-2.841,5.248-4.061,8.356-4.562.2,0,.15-.3,0-.3-3.894.234-9.727,2.122-11,6.334-1.671,5.415,5.014,6.451,8.807,6.384C352.074,295.315,352.041,294.747,351.706,294.7Z" transform="translate(-322.379 -282.58)" fill="#5561ef"/>
      <path id="Caminho_4031" data-name="Caminho 4031" d="M386.049,298.566c0,1.554-2.173,2.758-4.746,2.691s-4.646-1.37-4.613-2.925,2.173-2.758,4.746-2.691S386.083,297.028,386.049,298.566Z" transform="translate(-299.532 -273.815)" fill="#5561ef"/>
      <path id="Caminho_4032" data-name="Caminho 4032" d="M383.2,305.59c-2.39-1.019-5.365-1.671-7.22-3.593-3.677-3.944,1.989-6.351,5.1-7.27a.134.134,0,1,0,0-.267c-3.342.3-8.49,2.373-7.771,6.585s6.367,5.933,9.877,5.331a.418.418,0,0,0,.017-.786Z" transform="translate(-301.848 -274.606)" fill="#5561ef"/>
      <path id="Caminho_4033" data-name="Caminho 4033" d="M340.457,324.446c0,1.2-1.671,2.089-3.727,1.989s-3.576-1.17-3.51-2.356,1.671-2.106,3.727-2.005S340.524,323.243,340.457,324.446Z" transform="translate(-328.711 -256.076)" fill="#5561ef"/>
      <path id="Caminho_4034" data-name="Caminho 4034" d="M338.157,329.8c-1.838-.836-4.128-1.37-5.532-2.941-2.774-3.125,1.671-4.88,4.095-5.532a.1.1,0,1,0,0-.2c-2.607.167-6.685,1.671-6.15,5.014s4.83,4.713,7.554,4.328a.335.335,0,0,0,.033-.669Z" transform="translate(-330.521 -256.704)" fill="#5561ef"/>
      <path id="Caminho_4035" data-name="Caminho 4035" d="M394.058,325.437c.334,1.905-1.972,3.894-5.131,4.446s-6-.535-6.334-2.44,1.972-3.894,5.131-4.445S393.723,323.549,394.058,325.437Z" transform="translate(-295.591 -255.546)" fill="#5561ef"/>
      <path id="Caminho_4036" data-name="Caminho 4036" d="M384.785,322.559s0-.2-.1-.134c-2.991,2.256-7.186,5.95-4.178,10.027a9.008,9.008,0,0,0,11.3,1.788.334.334,0,0,0-.217-.6,15.158,15.158,0,0,1-8.172-1.036C378.518,330.08,382.028,325.066,384.785,322.559Z" transform="translate(-297.666 -255.844)" fill="#5561ef"/>
    </g>
  </g>
</svg>
